#!OML:ASF F:\VICON\USERDATA\INSTALL\rory3\rory3.ASF
:FULLY-SPECIFIED
:DEGREES
2915
root 0.934998 18.0542 1.50838 -0.830656 36.6578 -15.5884
lowerback 5.41774 2.85969 2.55231
upperback -2.43099 3.7139 -7.68618
thorax -4.92104 1.65827 -9.98774
lowerneck -24.8756 -14.0307 -14.0778
upperneck 2.8427 -16.2893 17.037
head 7.41947 -6.66638 5.43213
rclavicle 1.03368e-014 -2.54444e-014
rhumerus 55.3814 -26.4159 -19.6433
rradius 31.5883
rwrist 41.4488
rhand -55.9878 -1.19214
rfingers 7.12502
rthumb -28.3246 -29.07
lclavicle 1.03368e-014 -2.54444e-014
lhumerus 76.2583 -56.8156 38.4357
lradius 41.2221
lwrist -28.4284
lhand -28.1794 41.8985
lfingers 7.12502
lthumb -1.55919 -288.127
rfemur -3.80112 -7.92385 24.7955
rtibia 21.935
rfoot -16.9346 -19.7791
rtoes -0.057365
lfemur -20.3962 -6.13207 -2.50343
ltibia 29.3814
lfoot -14.7649 -6.06522
ltoes -13.2282
2916
root 0.94776 18.056 1.51485 -0.885511 36.9634 -15.6947
lowerback 5.54736 2.75674 2.50107
upperback -2.49383 3.56664 -7.7079
thorax -5.09135 1.57716 -9.98591
lowerneck -24.9136 -14.0032 -13.9526
upperneck 2.92399 -16.2901 16.9869
head 7.43665 -6.66507 5.39488
rclavicle 7.95139e-015 -1.36764e-013
rhumerus 55.43 -26.7664 -20.1539
rradius 31.4354
rwrist 40.6563
rhand -55.8184 -2.07128
rfingers 7.12502
rthumb -28.1626 -29.976
lclavicle 7.95139e-015 -1.36764e-013
lhumerus 76.2583 -56.8156 38.4357
lradius 41.2221
lwrist -28.4284
lhand -28.1794 41.8985
lfingers 7.12502
lthumb -1.55919 -288.127
rfemur -3.71489 -8.16158 24.8386
rtibia 21.838
rfoot -16.9984 -19.8066
rtoes 0.0959685
lfemur -20.5032 -6.24526 -2.45937
ltibia 29.4151
lfoot -14.7707 -6.24381
ltoes -12.9103
2917
root 0.959953 18.06 1.52186 -0.802615 37.1967 -15.6031
lowerback 5.55501 2.70873 2.1969
upperback -2.48103 3.47813 -7.73232
thorax -5.11434 1.54282 -9.82658
lowerneck -25.0484 -13.9964 -13.9862
upperneck 3.03284 -16.2945 17.1544
head 7.5165 -6.64397 5.44915
rclavicle 2.06736e-014 -4.77083e-014
rhumerus 54.9587 -26.7525 -19.2813
rradius 31.4474
rwrist 39.5075
rhand -55.0726 -2.41915
rfingers 7.12502
rthumb -27.4496 -30.4391
lclavicle 2.06736e-014 -4.77083e-014
lhumerus 76.2583 -56.8156 38.4357
lradius 41.2221
lwrist -28.4284
lhand -28.1794 41.8985
lfingers 7.12502
lthumb -1.55919 -288.127
rfemur -3.66551 -8.43345 24.7154
rtibia 21.7727
rfoot -16.8531 -19.8842
rtoes -0.459117
lfemur -20.5777 -6.34599 -2.5941
ltibia 29.4146
lfoot -14.7467 -6.31167
ltoes -12.9245
2918
root 0.971757 18.0593 1.52648 -0.77246 37.3557 -15.7098
lowerback 5.5307 2.69243 2.14079
upperback -2.53223 3.44826 -7.80133
thorax -5.15972 1.52623 -9.87
lowerneck -25.0096 -14.0076 -14.0347
upperneck 3.0787 -16.3632 17.486
head 7.58166 -6.65151 5.55282
rclavicle 5.24792e-014 4.77083e-014
rhumerus 53.541 -26.224 -17.1959
rradius 31.8074
rwrist 38.4606
rhand -54.8793 -0.560018
rfingers 7.12502
rthumb -27.2647 -28.6091
lclavicle 5.24792e-014 4.77083e-014
lhumerus 76.2583 -56.8156 38.4357
lradius 41.2221
lwrist -28.4284
lhand -28.1794 41.8985
lfingers 7.12502
lthumb -1.55919 -288.127
rfemur -3.69782 -8.60011 24.7771
rtibia 21.7039
rfoot -16.7631 -19.9522
rtoes -0.856697
lfemur -20.7103 -6.42386 -2.52842
ltibia 29.4207
lfoot -14.7412 -6.3411
ltoes -13.0388
2919
root 0.983069 18.0582 1.53003 -0.804952 37.5427 -15.8297
lowerback 5.61799 2.63377 2.13724
upperback -2.62873 3.36058 -7.89465
thorax -5.32383 1.47239 -9.9794
lowerneck -24.902 -13.9649 -13.9399
upperneck 3.07997 -16.394 17.7409
head 7.5964 -6.6504 5.61987
rclavicle -1.95604e-013 3.18055e-014
rhumerus 51.6627 -25.0906 -14.2884
rradius 32.452
rwrist 37.777
rhand -53.8341 -1.46181
rfingers 7.12502
rthumb -26.2645 -29.6639
lclavicle -1.95604e-013 3.18055e-014
lhumerus 76.2583 -56.8156 38.4357
lradius 41.2221
lwrist -28.4284
lhand -28.1794 41.8985
lfingers 7.12502
lthumb -1.55919 -288.127
rfemur -3.6875 -8.78942 24.8392
rtibia 21.6339
rfoot -16.6874 -19.9531
rtoes -0.744433
lfemur -20.7991 -6.56398 -2.44667
ltibia 29.4323
lfoot -14.7483 -6.34714
ltoes -12.8351
2920
root 0.99745 18.0591 1.53259 -0.904318 37.7093 -15.9797
lowerback 5.65537 2.58684 2.10705
upperback -2.65549 3.29313 -7.89605
thorax -5.38778 1.43646 -9.96251
lowerneck -25.0335 -13.9857 -13.9524
upperneck 3.34662 -16.4634 17.8531
head 7.72994 -6.66025 5.63892
rclavicle 6.75868e-014 6.04305e-014
rhumerus 49.9717 -23.7456 -11.6234
rradius 33.2639
rwrist 38.314
rhand -54.3255 -0.530416
rfingers 7.12502
rthumb -26.7349 -28.6616
lclavicle 6.75868e-014 6.04305e-014
lhumerus 76.2583 -56.8156 38.4357
lradius 41.2221
lwrist -28.4284
lhand -28.1794 41.8985
lfingers 7.12502
lthumb -1.55919 -288.127
rfemur -3.57906 -9.03548 24.8939
rtibia 21.5077
rfoot -16.4781 -19.9361
rtoes -0.854125
lfemur -20.862 -6.62381 -2.3743
ltibia 29.4902
lfoot -14.794 -6.39708
ltoes -12.977
2921
root 1.01126 18.0618 1.5357 -1.03815 37.7937 -16.1755
lowerback 5.6776 2.56127 2.07479
upperback -2.66261 3.25658 -7.8499
thorax -5.41882 1.41838 -9.8908
lowerneck -25.1519 -14.0602 -13.9978
upperneck 3.54795 -16.5768 17.9031
head 7.84123 -6.69811 5.63412
rclavicle -1.43125e-014 4.13472e-014
rhumerus 47.7771 -21.9937 -7.85466
rradius 34.6701
rwrist 38.3824
rhand -54.5556 -1.58714
rfingers 7.12502
rthumb -26.9551 -29.6845
lclavicle -1.43125e-014 4.13472e-014
lhumerus 76.2583 -56.8156 38.4357
lradius 41.2221
lwrist -28.4284
lhand -28.1794 41.8985
lfingers 7.12502
lthumb -1.55919 -288.127
rfemur -3.44443 -9.1383 24.997
rtibia 21.3336
rfoot -16.2277 -19.9883
rtoes -1.11319
lfemur -20.8928 -6.61398 -2.25406
ltibia 29.5696
lfoot -14.8514 -6.48168
ltoes -13.0795
2922
root 1.02311 18.063 1.54104 -1.31131 37.8107 -16.6116
lowerback 5.68001 2.51742 2.27393
upperback -2.65525 3.21525 -7.80151
thorax -5.41226 1.39102 -9.95054
lowerneck -25.1691 -14.0994 -13.9475
upperneck 3.51955 -16.6495 17.9606
head 7.8488 -6.72594 5.63043
rclavicle 6.67916e-014 -6.04305e-014
rhumerus 45.9074 -20.2001 -4.63761
rradius 36.2083
rwrist 38.9996
rhand -54.9756 0.689377
rfingers 7.12502
rthumb -27.3568 -27.3452
lclavicle 6.67916e-014 -6.04305e-014
lhumerus 76.2583 -56.8156 38.4357
lradius 41.2221
lwrist -28.4284
lhand -28.1794 41.8985
lfingers 7.12502
lthumb -1.55919 -288.127
rfemur -3.30992 -9.05137 25.334
rtibia 21.144
rfoot -16.2419 -20.0774
rtoes -0.575958
lfemur -20.9044 -6.63774 -1.88052
ltibia 29.644
lfoot -14.8955 -6.53817
ltoes -12.9361
2923
root 1.03164 18.0607 1.55033 -1.62866 37.7942 -16.9194
lowerback 5.78549 2.43728 2.31774
upperback -2.66574 3.10897 -7.78177
thorax -5.50253 1.33205 -9.95433
lowerneck -24.9899 -14.021 -14.034
upperneck 3.39402 -16.5728 18.2674
head 7.81548 -6.68076 5.7676
rclavicle -1.11319e-014 -3.18055e-015
rhumerus 44.5697 -18.3299 -2.32017
rradius 37.6172
rwrist 40.4212
rhand -55.3522 2.11144
rfingers 7.12502
rthumb -27.717 -25.8658
lclavicle -1.11319e-014 -3.18055e-015
lhumerus 76.2583 -56.8156 38.4357
lradius 41.2221
lwrist -28.4284
lhand -28.1794 41.8985
lfingers 7.12502
lthumb -1.55919 -288.127
rfemur -3.02636 -8.86082 25.5529
rtibia 20.9527
rfoot -16.4153 -20.0711
rtoes 0.641896
lfemur -20.7482 -6.65037 -1.62094
ltibia 29.6899
lfoot -14.8889 -6.6203
ltoes -12.3447
2924
root 1.04197 18.0598 1.55943 -1.81832 37.8227 -16.9231
lowerback 5.94285 2.34667 2.1303
upperback -2.70783 2.96532 -7.8185
thorax -5.67163 1.25876 -9.88705
lowerneck -24.7983 -13.925 -14.0968
upperneck 3.44161 -16.4901 18.448
head 7.81858 -6.64009 5.85957
rclavicle 6.12257e-014 3.81667e-014
rhumerus 43.1823 -16.1521 0.319696
rradius 39.385
rwrist 41.2237
rhand -55.812 2.94354
rfingers 7.12502
rthumb -28.1566 -24.9621
lclavicle 6.12257e-014 3.81667e-014
lhumerus 76.2583 -56.8156 38.4357
lradius 41.2221
lwrist -28.4284
lhand -28.1794 41.8985
lfingers 7.12502
lthumb -1.55919 -288.127
rfemur -2.68996 -8.69866 25.486
rtibia 20.7985
rfoot -16.5051 -20.0879
rtoes 1.245
lfemur -20.5082 -6.71568 -1.66452
ltibia 29.6979
lfoot -14.9486 -6.66294
ltoes -12.2229
2925
root 1.05588 18.0603 1.56533 -1.88344 37.8019 -16.8086
lowerback 6.03619 2.28382 1.89907
upperback -2.72463 2.85656 -7.87044
thorax -5.77137 1.20833 -9.80695
lowerneck -24.7852 -13.878 -14.0523
upperneck 3.5741 -16.4653 18.4473
head 7.85347 -6.62604 5.85727
rclavicle -1.03368e-014 -5.40694e-014
rhumerus 41.9811 -14.1102 2.73366
rradius 41.2243
rwrist 42.0732
rhand -56.4256 4.18741
rfingers 7.12502
rthumb -28.7429 -23.6203
lclavicle -1.03368e-014 -5.40694e-014
lhumerus 76.2583 -56.8156 38.4357
lradius 41.2221
lwrist -28.4284
lhand -28.1794 41.8985
lfingers 7.12502
lthumb -1.55919 -288.127
rfemur -2.45084 -8.53224 25.2933
rtibia 20.7038
rfoot -16.5026 -20.0749
rtoes 1.65913
lfemur -20.2846 -6.74292 -1.82185
ltibia 29.673
lfoot -15.0079 -6.67636
ltoes -12.0385
